<svg width="100" height="100" version="1.0" viewBox="0 0 602 602" xmlns="http://www.w3.org/2000/svg"><g stroke="#000" stroke-linejoin="round"><path d="M300.87 600.27h.252l-.126.126zM1.883 301.3l-.126-.126h.126z" fill="#c8b100" stroke-width="1.2"/><path d="M600.31 301.19 301.22 600.28h-.25V301.19z" fill="#ffdc14"/></g><g fill="#ff1e00" stroke="#000" stroke-linejoin="round" stroke-width="1.3"><path d="M364.35 301.17v235.87l-32.7 32.702v-268.57zM430.04 301.17v170.18l-32.732 32.733v-202.92zM495.66 301.17v104.59l-32.7 32.702v-137.29zM561.34 301.17v38.902l-32.732 32.733v-71.636z"/></g><g stroke="#000"><g stroke-linejoin="round"><path d="M300.97 301.19v299.28L1.69 301.19z" fill="#f5f5f5"/><path d="M237.33 301.17v81.141h63.638v32.985H237.33v121.43l-32.952-32.954v-88.474h-88.47l-33.015-32.985h121.48v-81.141z" fill="#ff1e00" stroke-width="1.3"/><path d="M1.883 301.17h-.126l-.157-.157.283-.284z" fill="#c8b100" stroke-width="1.2"/></g><path d="m301 1.5 298.69 298.69H2.32z" fill="#ffdc14"/></g><path fill="none" stroke="#000" stroke-linecap="round" stroke-linejoin="round" stroke-width="3" d="M600.501 301.005 301 1.503 1.497 301.005l299.502 299.502z"/><g stroke="#969696"><path d="M293.688 67.851c-44.063 0-79.51 35.45-79.51 79.51v28.51h13.496v-27.58c0-37.217 29.97-67.19 67.189-67.19h12.274c37.217 0 67.14 29.972 67.14 67.19v27.58h13.544v-28.51c0-44.062-35.497-79.51-79.56-79.51z" stroke-linecap="square" stroke-width="1.9998144"/><g fill-rule="evenodd" stroke-width=".788"><path d="m209.703 156.935-5.438 7.402c-13.976-1.26-10.282 15.989-3.285 16.828 4.933.436 8.14 1.32 11.442-2.355l6.807-19.369M392.278 156.935l5.438 7.402c13.976-1.26 10.282 15.989 3.285 16.828-4.933.436-8.14 1.32-11.442-2.355l-6.807-19.369" stroke-width="1.9992899600000003"/><path d="M213.302 160.741c-2.033 7.59-3.171 25.702-3.171 33.935 0 50.429 40.709 91.338 90.861 91.338s90.861-40.912 90.861-91.338c0-8.227-1.061-26.351-3.092-33.935-52.908 10.46-107.244 18.245-175.46 0z" stroke-linejoin="round" stroke-width="1.9992899600000003"/><path d="M203.052 140.038c-7.738.31-2.214 18.3 1.745 20.376 23.366 12.645 46.506 19.457 96.173 19.457 48.935 0 72.875-6.805 96.255-19.457 4.524-2.372 11.04-25.561-2.457-19.345-28.264 17.826-53.387 20.73-93.718 20.73-41.06 0-63.76-6.926-93.797-20.73-1.687-.777-3.097-1.075-4.202-1.031z" stroke-width="1.9992899600000003"/></g></g></svg>