<?xml version="1.0" encoding="UTF-8" standalone="no"?>
<svg
   version="1.1"
   width="100"
   height="100"
   id="svg67"
   sodipodi:docname="favicon2.svg"
   inkscape:export-filename="favicon2.png"
   inkscape:export-xdpi="96"
   inkscape:export-ydpi="96"
   inkscape:version="1.2.2 (b0a8486541, 2022-12-01)"
   xmlns:inkscape="http://www.inkscape.org/namespaces/inkscape"
   xmlns:sodipodi="http://sodipodi.sourceforge.net/DTD/sodipodi-0.dtd"
   xmlns="http://www.w3.org/2000/svg"
   xmlns:svg="http://www.w3.org/2000/svg">
  <defs
     id="defs71">
    <defs
       id="defs11">
      <style
         type="text/css"
         id="style6" />
      <style
         type="text/css"
         id="style8" />
      <g
         id="SvgjsG1001" />
    </defs>
  </defs>
  <sodipodi:namedview
     id="namedview69"
     pagecolor="#ffffff"
     bordercolor="#666666"
     borderopacity="1.0"
     inkscape:showpageshadow="2"
     inkscape:pageopacity="0.0"
     inkscape:pagecheckerboard="0"
     inkscape:deskcolor="#d1d1d1"
     showgrid="false"
     inkscape:zoom="4.72"
     inkscape:cx="54.025424"
     inkscape:cy="56.355932"
     inkscape:window-width="1920"
     inkscape:window-height="1014"
     inkscape:window-x="0"
     inkscape:window-y="0"
     inkscape:window-maximized="1"
     inkscape:current-layer="svg67" />
  <rect
     style="fill:#ffdc14;stroke:#000000;stroke-width:3.78;stroke-linecap:square;stroke-linejoin:miter;stroke-dashoffset:7.99752;paint-order:fill markers stroke;fill-opacity:1;stroke-dasharray:none"
     id="rect445"
     width="100"
     height="100"
     x="0"
     y="0" />
  <path
     d="m 124.26965,68.562552 h 0.0418 l -0.0209,0.02091 z"
     fill="#c8b100"
     stroke-width="1.2"
     id="path13"
     style="stroke:#000000;stroke-width:0.166;stroke-linejoin:round;stroke-dasharray:none" />
  <path
     d="m 74.604066,18.899761 -0.02091,-0.02091 h 0.02091 z"
     fill="#c8b100"
     stroke-width="1.2"
     id="path15"
     style="stroke:#000000;stroke-width:0.166;stroke-linejoin:round;stroke-dasharray:none" />
  <g
     transform="matrix(0.46098202,0,0,0.46093307,-55.941498,16.925351)"
     stroke="#969696"
     id="g61"
     style="stroke-width:0.563899">
    <path
       d="m 225.15,2.125 c -28.159,0 -50.812,22.654 -50.812,50.812 v 18.219 h 8.625 V 53.531 c 0,-23.784 19.153,-42.938 42.938,-42.938 h 7.8438 c 23.784,0 42.906,19.153 42.906,42.938 v 17.625 h 8.6562 V 52.937 c 0,-28.159 -22.685,-50.812 -50.844,-50.812 z"
       stroke-linecap="square"
       stroke-width="0.720719"
       id="path47" />
    <g
       transform="matrix(1.6214,0,0,1.6214,-143.61,-276.98)"
       fill-rule="evenodd"
       stroke-width="0.444505"
       id="g59">
      <g
         transform="translate(0.25145)"
         id="g53"
         style="stroke-width:0.444505">
        <path
           d="m 194.08,207.25 -2.1435,2.9171 c -5.5083,-0.49661 -4.0525,6.302 -1.2947,6.6328 1.9443,0.17178 3.2081,0.52048 4.5099,-0.92835 l 2.6827,-7.634"
           id="path49"
           style="stroke-width:0.444505" />
        <path
           d="m 266.04,207.25 2.1435,2.9171 c 5.5083,-0.49661 4.0525,6.302 1.2947,6.6328 -1.9443,0.17178 -3.2081,0.52048 -4.5099,-0.92835 l -2.6827,-7.634"
           id="path51"
           style="stroke-width:0.444505" />
      </g>
      <path
         d="m 195.75,208.75 c -0.80166,2.9914 -1.25,10.13 -1.25,13.375 0,19.876 16.045,36 35.812,36 19.767,0 35.812,-16.125 35.812,-36 0,-3.2426 -0.41823,-10.386 -1.2188,-13.375 -20.853,4.1224 -42.269,7.1908 -69.156,0 z"
         stroke-linejoin="round"
         id="path55"
         style="stroke-width:0.250656" />
      <path
         d="m 191.71,200.59 c -3.0499,0.12227 -0.87267,7.2131 0.6875,8.0312 9.2098,4.9837 18.33,7.6685 37.906,7.6685 19.287,0 28.723,-2.6821 37.938,-7.6685 1.783,-0.93507 4.3512,-10.075 -0.96875,-7.625 -11.14,7.026 -21.042,8.171 -36.938,8.171 -16.183,0 -25.13,-2.7301 -36.969,-8.171 -0.665,-0.30624 -1.2206,-0.42372 -1.6562,-0.40625 z"
         id="path57"
         style="stroke-width:0.444505" />
    </g>
  </g>
  <style
     id="style65">@media (prefers-color-scheme: light) { :root { filter: none; } }
@media (prefers-color-scheme: dark) { :root { filter: none; } }
</style>
</svg>
